TITLE ""
FILE "DISC2Track13.mp3" MP3
  TRACK 01 AUDIO
    TITLE "DISC2Track13_01"
    INDEX 01 00:00:00
  TRACK 02 AUDIO
    TITLE "DISC2Track13_02"
    INDEX 01 00:02:74
  TRACK 03 AUDIO
    TITLE "DISC2Track13_03"
    INDEX 01 00:03:22
  TRACK 04 AUDIO
    TITLE "DISC2Track13_04"
    INDEX 01 00:06:34
  TRACK 05 AUDIO
    TITLE "DISC2Track13_05"
    INDEX 01 00:08:47
  TRACK 06 AUDIO
    TITLE "DISC2Track13_06"
    INDEX 01 00:10:54
  TRACK 07 AUDIO
    TITLE "DISC2Track13_07"
    INDEX 01 00:11:04
  TRACK 08 AUDIO
    TITLE "DISC2Track13_08"
    INDEX 01 00:14:38
  TRACK 09 AUDIO
    TITLE "DISC2Track13_09"
    INDEX 01 00:17:52
  TRACK 10 AUDIO
    TITLE "DISC2Track13_10"
    INDEX 01 00:20:62
  TRACK 11 AUDIO
    TITLE "DISC2Track13_11"
    INDEX 01 00:21:10
  TRACK 12 AUDIO
    TITLE "DISC2Track13_12"
    INDEX 01 00:24:28
  TRACK 13 AUDIO
    TITLE "DISC2Track13_13"
    INDEX 01 00:26:61
  TRACK 14 AUDIO
    TITLE "DISC2Track13_14"
    INDEX 01 00:29:08
  TRACK 15 AUDIO
    TITLE "DISC2Track13_15"
    INDEX 01 00:29:34
  TRACK 16 AUDIO
    TITLE "DISC2Track13_16"
    INDEX 01 00:32:40
  TRACK 17 AUDIO
    TITLE "DISC2Track13_17"
    INDEX 01 00:35:11
  TRACK 18 AUDIO
    TITLE "DISC2Track13_18"
    INDEX 01 00:37:53
  TRACK 19 AUDIO
    TITLE "DISC2Track13_19"
    INDEX 01 00:37:74
  TRACK 20 AUDIO
    TITLE "DISC2Track13_20"
    INDEX 01 00:42:11
  TRACK 21 AUDIO
    TITLE "DISC2Track13_21"
    INDEX 01 00:45:31
  TRACK 22 AUDIO
    TITLE "DISC2Track13_22"
    INDEX 01 00:48:49
  TRACK 23 AUDIO
    TITLE "DISC2Track13_23"
    INDEX 01 00:48:72
  TRACK 24 AUDIO
    TITLE "DISC2Track13_24"
    INDEX 01 00:52:46
  TRACK 25 AUDIO
    TITLE "DISC2Track13_25"
    INDEX 01 00:55:60
  TRACK 26 AUDIO
    TITLE "DISC2Track13_26"
    INDEX 01 00:58:67
  TRACK 27 AUDIO
    TITLE "DISC2Track13_27"
    INDEX 01 00:59:15
  TRACK 28 AUDIO
    TITLE "DISC2Track13_28"
    INDEX 01 01:03:01
  TRACK 29 AUDIO
    TITLE "DISC2Track13_29"
    INDEX 01 01:06:11
  TRACK 30 AUDIO
    TITLE "DISC2Track13_30"
    INDEX 01 01:09:17
  TRACK 31 AUDIO
    TITLE "DISC2Track13_31"
    INDEX 01 01:09:37
  TRACK 32 AUDIO
    TITLE "DISC2Track13_32"
    INDEX 01 01:13:01
  TRACK 33 AUDIO
    TITLE "DISC2Track13_33"
    INDEX 01 01:15:53
  TRACK 34 AUDIO
    TITLE "DISC2Track13_34"
    INDEX 01 01:18:22
  TRACK 35 AUDIO
    TITLE "DISC2Track13_35"
    INDEX 01 01:18:46
  TRACK 36 AUDIO
    TITLE "DISC2Track13_36"
    INDEX 01 01:21:03
  TRACK 37 AUDIO
    TITLE "DISC2Track13_37"
    INDEX 01 01:23:37
  TRACK 38 AUDIO
    TITLE "DISC2Track13_38"
    INDEX 01 01:25:65
  TRACK 39 AUDIO
    TITLE "DISC2Track13_39"
    INDEX 01 01:26:16
  TRACK 40 AUDIO
    TITLE "DISC2Track13_40"
    INDEX 01 01:29:38
  TRACK 41 AUDIO
    TITLE "DISC2Track13_41"
    INDEX 01 01:32:54
  TRACK 42 AUDIO
    TITLE "DISC2Track13_42"
    INDEX 01 01:35:64
